{
  "source": "C:\\Users\\Peter\\Desktop\\stuff\\MIUN\\quantitative_research\\video_compression\\videos\\BVI-HD\\BVI-HD_CDVL_videos\\ORIG\\TreeGrassFamily_1920x1080_30fps.mp4",
  "output": "C:\\Users\\Peter\\Desktop\\stuff\\MIUN\\quantitative_research\\video_compression\\compressed_videos\\BVI-HD\\h264\\3\\TreeGrassFamily_1920x1080_30fps_h264.mp4",
  "codec": "h264",
  "ok": "Input #0, mov,mp4,m4a,3gp,3g2,mj2, from 'C:\\Users\\Peter\\Desktop\\stuff\\MIUN\\quantitative_research\\video_compression\\videos\\BVI-HD\\BVI-HD_CDVL_videos\\ORIG\\TreeGrassFamily_1920x1080_30fps.mp4':\n  Metadata:\n    major_brand     : isom\n    minor_version   : 512\n    compatible_brands: isomiso2avc1mp41\n    encoder         : Lavf54.28.101\n  Duration: 00:00:05.00, start: 0.000000, bitrate: 331787 kb/s\n  Stream #0:0[0x1](und): Video: h264 (High 4:4:4 Predictive) (avc1 / 0x31637661), yuv420p(progressive), 1920x1080, 331784 kb/s, 30 fps, 30 tbr, 30 tbn (default)\n    Metadata:\n      handler_name    : VideoHandler\n      vendor_id       : [0][0][0][0]\n[out#0/mp4 @ 00000171bb4df040] Codec AVOption b:a (set bitrate (in bits/s)) has not been used for any stream. The most likely reason is either wrong type (e.g. a video option with no video streams) or that it is a private option of some decoder which was not actually used for any stream.\nStream mapping:\n  Stream #0:0 -> #0:0 (h264 (native) -> h264 (libx264))\nPress [q] to stop, [?] for help\n[libx264 @ 00000171bb5975c0] using cpu capabilities: MMX2 SSE2Fast SSSE3 SSE4.2 AVX FMA3 BMI2 AVX2\n[libx264 @ 00000171bb5975c0] profile High, level 5.0, 4:2:0, 8-bit\n[libx264 @ 00000171bb5975c0] 264 - core 165 r3222 b35605a - H.264/MPEG-4 AVC codec - Copyleft 2003-2025 - http://www.videolan.org/x264.html - options: cabac=1 ref=5 deblock=1:0:0 analyse=0x3:0x113 me=hex subme=8 psy=1 psy_rd=1.00:0.00 mixed_ref=1 me_range=16 chroma_me=1 trellis=2 8x8dct=1 cqm=0 deadzone=21,11 fast_pskip=1 chroma_qp_offset=-2 threads=18 lookahead_threads=3 sliced_threads=0 nr=0 decimate=1 interlaced=0 bluray_compat=0 constrained_intra=0 bframes=3 b_pyramid=2 b_adapt=1 b_bias=0 direct=3 weightb=1 open_gop=0 weightp=2 keyint=250 keyint_min=25 scenecut=40 intra_refresh=0 rc_lookahead=50 rc=cbr mbtree=1 bitrate=3000 ratetol=1.0 qcomp=0.60 qpmin=0 qpmax=69 qpstep=4 vbv_maxrate=3000 vbv_bufsize=3000 nal_hrd=none filler=0 ip_ratio=1.40 aq=1:1.00\nOutput #0, mp4, to 'C:\\Users\\Peter\\Desktop\\stuff\\MIUN\\quantitative_research\\video_compression\\compressed_videos\\BVI-HD\\h264\\3\\TreeGrassFamily_1920x1080_30fps_h264.mp4':\n  Metadata:\n    major_brand     : isom\n    minor_version   : 512\n    compatible_brands: isomiso2avc1mp41\n    encoder         : Lavf62.3.100\n  Stream #0:0(und): Video: h264 (avc1 / 0x31637661), yuv420p(tv, progressive), 1920x1080, q=2-31, 3000 kb/s, 30 fps, 15360 tbn (default)\n    Metadata:\n      encoder         : Lavc62.11.100 libx264\n      handler_name    : VideoHandler\n      vendor_id       : [0][0][0][0]\n    Side data:\n      cpb: bitrate max/min/avg: 3000000/0/3000000 buffer size: 3000000 vbv_delay: N/A\nframe=    0 fps=0.0 q=0.0 size=       0KiB time=N/A bitrate=N/A speed=N/A elapsed=0:00:00.52    \nframe=    0 fps=0.0 q=0.0 size=       0KiB time=N/A bitrate=N/A speed=N/A elapsed=0:00:01.13    \nframe=    0 fps=0.0 q=0.0 size=       0KiB time=N/A bitrate=N/A speed=N/A elapsed=0:00:01.65    \nframe=    8 fps=3.6 q=43.0 size=       0KiB time=00:00:00.20 bitrate=   1.9kbits/s speed=0.0907x elapsed=0:00:02.20    \nframe=   25 fps=8.9 q=39.0 size=       0KiB time=00:00:00.76 bitrate=   0.5kbits/s speed=0.272x elapsed=0:00:02.82    \nframe=   46 fps= 13 q=40.0 size=     256KiB time=00:00:01.40 bitrate=1498.2kbits/s speed=0.404x elapsed=0:00:03.46    \nframe=   64 fps= 16 q=40.0 size=     512KiB time=00:00:01.96 bitrate=2132.9kbits/s speed=0.486x elapsed=0:00:04.04    \nframe=   85 fps= 18 q=40.0 size=     768KiB time=00:00:02.73 bitrate=2301.9kbits/s speed=0.591x elapsed=0:00:04.62    \nframe=   98 fps= 19 q=40.0 size=     768KiB time=00:00:03.10 bitrate=2029.6kbits/s speed=0.594x elapsed=0:00:05.22    \nframe=  117 fps= 20 q=40.0 size=    1024KiB time=00:00:03.83 bitrate=2188.4kbits/s speed=0.664x elapsed=0:00:05.77    \nframe=  134 fps= 21 q=-1.0 size=    1280KiB time=00:00:04.36 bitrate=2401.4kbits/s speed=0.689x elapsed=0:00:06.33    \n[mp4 @ 00000171ba7b9a40] Starting second pass: moving the moov atom to the beginning of the file\n[out#0/mp4 @ 00000171bb4df040] video:1656KiB audio:0KiB subtitle:0KiB other streams:0KiB global headers:0KiB muxing overhead: 0.157753%\nframe=  150 fps= 23 q=-1.0 Lsize=    1659KiB time=00:00:04.93 bitrate=2754.1kbits/s speed=0.759x elapsed=0:00:06.50    \n[libx264 @ 00000171bb5975c0] frame I:1     Avg QP:40.04  size: 58171\n[libx264 @ 00000171bb5975c0] frame P:38    Avg QP:40.14  size: 24999\n[libx264 @ 00000171bb5975c0] frame B:111   Avg QP:43.66  size:  6187\n[libx264 @ 00000171bb5975c0] consecutive B-frames:  1.3%  0.0%  0.0% 98.7%\n[libx264 @ 00000171bb5975c0] mb I  I16..4: 16.4% 78.6%  5.0%\n[libx264 @ 00000171bb5975c0] mb P  I16..4:  0.2%  3.5%  0.0%  P16..4: 39.8% 11.4%  8.0%  0.0%  0.0%    skip:37.0%\n[libx264 @ 00000171bb5975c0] mb B  I16..4:  0.0%  0.2%  0.0%  B16..8: 30.0%  2.8%  0.5%  direct: 1.4%  skip:65.1%  L0:38.5% L1:59.0% BI: 2.6%\n[libx264 @ 00000171bb5975c0] 8x8 transform intra:88.1% inter:80.9%\n[libx264 @ 00000171bb5975c0] direct mvs  spatial:91.0% temporal:9.0%\n[libx264 @ 00000171bb5975c0] coded y,uvDC,uvAC intra: 63.0% 28.8% 1.4% inter: 9.2% 1.7% 0.0%\n[libx264 @ 00000171bb5975c0] i16 v,h,dc,p: 32% 17% 14% 36%\n[libx264 @ 00000171bb5975c0] i8 v,h,dc,ddl,ddr,vr,hd,vl,hu:  7%  2%  4% 19% 13% 12% 10% 23%  9%\n[libx264 @ 00000171bb5975c0] i4 v,h,dc,ddl,ddr,vr,hd,vl,hu:  6%  2%  2% 18% 14% 15% 12% 15% 15%\n[libx264 @ 00000171bb5975c0] i8c dc,h,v,p: 86%  8%  5%  2%\n[libx264 @ 00000171bb5975c0] Weighted P-Frames: Y:0.0% UV:0.0%\n[libx264 @ 00000171bb5975c0] ref P L0: 50.8%  7.3% 22.4%  7.9% 11.6%\n[libx264 @ 00000171bb5975c0] ref B L0: 79.4% 13.3%  4.7%  2.6%\n[libx264 @ 00000171bb5975c0] ref B L1: 95.7%  4.3%\n[libx264 @ 00000171bb5975c0] kb/s:2711.88\n",
  "seconds": 6.796865224838257,
  "probe_out": {}
}